<?xml version="1.0" encoding="utf-8"?>
<!-- Generator: Adobe Illustrator 16.0.0, SVG Export Plug-In . SVG Version: 6.00 Build 0)  -->
<!DOCTYPE svg PUBLIC "-//W3C//DTD SVG 1.1//EN" "http://www.w3.org/Graphics/SVG/1.1/DTD/svg11.dtd">
<svg version="1.1" id="图层_1" xmlns="http://www.w3.org/2000/svg" xmlns:xlink="http://www.w3.org/1999/xlink" x="0px" y="0px"
	 width="2500px" height="804px" viewBox="0 0 2500 804" enable-background="new 0 0 2500 804" xml:space="preserve">
<path fill="#004FFF" d="M974.295,423.684c87.343-18.765,75.419-123.261,72.857-146.083c-4.305-35.219-45.7-96.719-101.87-91.806
	c-70.719,6.3-81.042,108.452-81.042,108.452C854.66,341.547,887.099,442.505,974.295,423.684 M1136.49,248.513
	c48.213,0,87.188-55.561,87.188-124.207c0-68.635-38.975-124.106-87.188-124.106c-48.232,0-87.31,55.471-87.31,124.117
	C1049.184,192.952,1088.258,248.513,1136.49,248.513 M1344.358,256.684c64.533,8.453,105.896-60.396,114.166-112.565
	c8.452-52.101-33.234-112.7-78.834-123.103c-45.79-10.526-102.952,62.774-108.103,110.593
	C1265.299,190.112,1279.894,248.423,1344.358,256.684 M1599.948,344.331c0-24.952-20.655-100.168-97.599-100.168
	c-77.076,0-87.275,70.979-87.275,121.13c0,47.875,3.989,114.627,99.721,112.554C1610.432,475.729,1599.948,369.463,1599.948,344.331
	 M1502.353,563.364c0,0-99.763-77.154-157.995-160.609c-79.06-123.046-191.252-72.928-228.759-10.447
	c-37.396,62.639-95.525,102.197-103.843,112.7c-8.396,10.278-120.499,70.855-95.626,181.459
	c24.929,110.537,112.351,108.44,112.351,108.44s64.432,6.301,139.151-10.413c74.878-16.668,139.298,4.091,139.298,4.091
	s174.663,58.57,222.381-54.13C1577.115,621.856,1502.353,563.364,1502.353,563.364"/>
<path fill="#FFFFFF" d="M1151.99,455.792v74.247h-60.497c0,0-60.464,5.015-81.629,73.537c-7.382,45.756,6.514,72.703,8.938,78.474
	c2.442,5.747,21.987,39.208,71.057,49.024h113.523V456.592L1151.99,455.792z M1151.074,686.027h-45.731
	c0,0-31.86-1.656-41.563-38.329c-5.004-16.266,0.743-35.039,3.271-42.421c2.311-7.396,13.006-24.479,35.062-31.052h48.957
	L1151.074,686.027L1151.074,686.027z M1231.207,536.699v144.517c0,0,2.363,35.984,53.082,49.081h130.642V536.699h-56.384V682.05
	h-53.814c0,0-17.198-2.491-20.421-16.331V535.843L1231.207,536.699L1231.207,536.699z"/>
<linearGradient id="SVGID_1_" gradientUnits="userSpaceOnUse" x1="-8.8997" y1="210.2461" x2="2492.0901" y2="210.2461" gradientTransform="matrix(1 0 0 -1 8.3999 780.04)">
	<stop  offset="0" style="stop-color:#FFFFFF"/>
	<stop  offset="1" style="stop-color:#000000"/>
</linearGradient>
<path fill="#FF000D" stroke="url(#SVGID_1_)" stroke-miterlimit="10" d="M2037.387,441.817V380.88h-401.352l-0.519,61.827h172.532
	l-16.174,36.966H1645.15V785.44h348.563c36.444,0,33.213-36.811,33.213-36.811V479.67h-146.95l12.915-37.854L2037.387,441.817
	L2037.387,441.817z M1959.444,720.131c0,0-4.227,10.165-10.199,10.165h-231.307v-71.316h241.518v61.151H1959.444L1959.444,720.131z
	 M1959.049,600.094h-241.137v-66.864h241.137V600.094z M2495.988,382.503h-157.465v-30.846h-73.864v29.325h-180.625V784.81h64.983
	V433.083h346.971V382.503L2495.988,382.503z M2453.522,466.07v-23.363h-63.482v23.363h-130.599v-22.54h-60.137v22.54h-40.64
	l0.8,45.73h39.84v85.912h219.677c30.484,0,34.521-32.153,34.521-32.153v-53.77h46.488v-45.745h-46.479v0.022L2453.522,466.07
	L2453.522,466.07z M2390.037,543.045c0,0-5.657,10.413-12.903,10.413H2258.74v-42.544h131.296L2390.037,543.045L2390.037,543.045z
	 M2167.531,660.354l101.115,58.638c-8.002,8.813-42.545,19.979-42.545,19.979h-67.417v45.08h91.535
	c27.316-5.59,77.861-31.286,77.861-31.286c20.932,19.219,61.151,27.221,61.151,27.221h104.339v-44.971h-78.654
	c-21.196-3.167-40.231-15.245-40.231-15.245l118.897-68.274v-36.976h-326.021v45.821h-0.034L2167.531,660.354L2167.531,660.354z
	 M2377.946,659.6l-57.838,30.485l-53.015-30.485H2377.946L2377.946,659.6z M743.023,446.787h87.603v-77.166h-87.603V446.787
	L743.023,446.787z M743.023,783.176h87.603V480.417h-87.603V783.176L743.023,783.176z M600.577,480.688l-186.899-0.484v63.63
	h163.889c0,0,39.006,9.625,39.006,34.386v22.404H468.27c0,0-58.322,5.376-77.053,75.059c-3.227,32.627,1.067,48.645,3.268,54.614
	c2.108,5.896,19.193,44.359,70.055,53.995h236.145v-216.87C700.681,567.422,689.434,493.017,600.577,480.688 M616.573,724.357
	h-119.35c-16.037-6.473-21.379-17.153-22.507-19.837c-1.104-2.639-4.823-12.219-0.495-21.922
	c9.658-18.694,25.661-23.002,25.661-23.002H616.57L616.573,724.357L616.573,724.357z M371.953,676.967
	c2.581-73.718-63.552-99.188-63.552-99.188c55.979-29.291,48.867-103.076,48.867-103.076
	c-6.063-112.937-144.054-107.674-144.054-107.674H0v420.902h240.75C382.133,787.379,371.953,676.967,371.953,676.967
	 M235.916,709.706v0.181H91.693v-90.803h143.517l4.854,0.969c0,0,27.311,4.992,37.203,29.563c0,0,5.728,23.067-6.639,40.211
	C270.627,689.825,261.532,705.693,235.916,709.706 M266.491,514.554c0,0-9.692,17.818-35.41,21.65H91.693v-87.106h138.791
	c0,0,30.158-1.406,40.146,22.563C270.627,471.66,276.623,497.107,266.491,514.554"/>
</svg>
